<svg width="23" height="30" viewBox="0 0 23 30" fill="none" xmlns="http://www.w3.org/2000/svg">
<g clip-path="url(#clip0_62_177)">
<path d="M8.09672 0.0254682C7.95816 0.0209969 7.81805 0.0211233 7.67674 0.0259366C6.32035 0.0720636 4.84446 0.554458 3.37962 1.65226C-0.51007 4.56732 -0.645376 9.04017 0.972312 11.513L10.8775 26.6545C11.0764 26.9585 11.367 27.1788 11.6969 27.276L20.5382 29.8814C20.7383 29.9403 20.9466 29.952 21.1487 29.9156C21.3508 29.8792 21.5418 29.7956 21.7087 29.6705C21.8756 29.5454 22.0144 29.3818 22.1154 29.191C22.2165 29.0002 22.2775 28.7867 22.2941 28.5652L23.0311 18.7821C23.0586 18.417 22.9645 18.0492 22.7656 17.745L12.8604 2.60355C11.9287 1.17927 10.1752 0.0925537 8.09687 0.0257108L8.09672 0.0254682Z" fill="url(#paint0_linear_62_177)"/>
</g>
<defs>
<linearGradient id="paint0_linear_62_177" x1="18.1866" y1="7.06511" x2="2.12511" y2="18.1267" gradientUnits="userSpaceOnUse">
<stop stop-color="#FF7181"/>
<stop offset="1" stop-color="#CB0029"/>
</linearGradient>
<clipPath id="clip0_62_177">
<rect width="23" height="30" fill="white"/>
</clipPath>
</defs>
</svg>
