<svg version="1.1" viewBox="0 0 806.19 147.68" xmlns="http://www.w3.org/2000/svg" xmlns:xlink="http://www.w3.org/1999/xlink">
 <defs>
  <linearGradient id="linearGradient105058" x1="662.18" x2="568" y1="495.24" y2="564.78" gradientTransform="matrix(.69099 .51078 -.48383 .72947 443.62 -180.29)" gradientUnits="userSpaceOnUse">
   <stop stop-color="#ff7181" offset="0"/>
   <stop stop-color="#cb0029" offset="1"/>
  </linearGradient>
 </defs>
 <g transform="translate(-553.73 -463.93)">
  <g transform="translate(392.73 -143.8)">
   <path d="m354.79 611.28v90.605c-9e-3 0.41364-0.0293 0.82456-0.0293 1.2402s0.0202 0.8266 0.0293 1.2402c0.30666 14.01 5.7709 26.806 14.5 36.062 0.53712 0.56956 1.0872 1.1257 1.6484 1.668 0.56161 0.54256 1.1358 1.0699 1.7207 1.584 1.1698 1.0282 2.3848 1.9985 3.6426 2.9062 0.62506 0.45115 1.2608 0.8869 1.9062 1.3066 0.0174 0.0113 0.0353 0.0219 0.0527 0.0332 0.6313 0.40936 1.2719 0.80329 1.9219 1.1816 0.0252 0.0147 0.051 0.0284 0.0762 0.043 0.6462 0.37454 1.3011 0.7352 1.9648 1.0781 0.0199 0.0103 0.0406 0.019 0.0605 0.0293 0.66612 0.3429 1.3405 0.67039 2.0234 0.98047 0.0491 0.0223 0.0993 0.0423 0.14843 0.0645 0.63579 0.28593 1.2781 0.55971 1.9277 0.81641 0.20954 0.0827 0.42383 0.15481 0.63476 0.23437 0.52097 0.19684 1.0411 0.39263 1.5703 0.57032 0.21424 0.0718 0.43286 0.13255 0.64844 0.20117 0.53055 0.16916 1.0613 0.33871 1.5996 0.48828 0.26485 0.0735 0.53412 0.13447 0.80079 0.20312 0.49165 0.12679 0.9828 0.25505 1.4805 0.36524 0.27838 0.0615 0.56161 0.10975 0.8418 0.16601 0.51194 0.10299 1.0232 0.20978 1.541 0.29492 0.22226 0.0365 0.44857 0.0586 0.67187 0.0918 0.55429 0.0825 1.1074 0.16681 1.668 0.22852 0.42586 0.0468 0.85781 0.0728 1.2871 0.10742 0.38736 0.0313 0.77204 0.0744 1.1621 0.0957 0.81034 0.0441 1.6259 0.0664 2.4473 0.0664 0.32576 0 0.64673-0.0199 0.9707-0.0273 5e-3 2.2e-4 0.0104-2.1e-4 0.0156 0 0.64813 0.0267 1.2923 0.0742 1.9453 0.0742 8.96 0 16.96-2.2407 24-6.7207 7.168-4.48 12.8-10.624 16.896-18.432 4.096-7.936 6.1445-16.96 6.1445-27.072s-2.1119-19.071-6.3359-26.879-9.9218-13.954-17.09-18.434c-7.04-4.48-15.04-6.7188-24-6.7188-4.608 0-9.0874 0.70333-13.439 2.1113-4.224 1.408-8.1269 3.3931-11.711 5.9531-3.584 2.432-6.5934 5.3107-9.0254 8.6387-0.7096 0.98555-1.3439 1.9917-1.9199 3.0137v-59.461zm48.574 53.375c6.784 0 12.801 1.6642 18.049 4.9922s9.3431 7.8728 12.287 13.633c3.072 5.76 4.6094 12.351 4.6094 19.775 0 7.296-1.5374 13.887-4.6094 19.775-2.944 5.76-7.0391 10.368-12.287 13.824-5.248 3.328-11.265 4.9922-18.049 4.9922-1.941 0-3.8118-0.15136-5.627-0.42383-0.0971-0.0159-0.19417-0.032-0.29102-0.0488-0.83941-0.14557-1.6686-0.33242-2.4883-0.54493-0.10153-0.0263-0.20349-0.0508-0.30469-0.0781-0.80677-0.21784-1.602-0.46563-2.3867-0.7461-0.0833-0.0298-0.16496-0.0634-0.24805-0.0937-0.7989-0.29307-1.5882-0.61112-2.3613-0.96679-0.77254-0.35542-1.5293-0.74666-2.2734-1.1621-0.10211-0.057-0.20314-0.1157-0.30469-0.17383-0.7373-0.42195-1.4618-0.86696-2.168-1.3457-0.72354-0.49054-1.4272-1.015-2.1152-1.5625-0.0484-0.0385-0.0983-0.0745-0.14649-0.11328-0.68468-0.55084-1.3498-1.1295-1.9961-1.7344-0.0353-0.033-0.0703-0.0664-0.10547-0.0996-1.2982-1.225-2.5121-2.5584-3.6367-3.9863-0.0462-0.0587-0.0928-0.11677-0.13867-0.17578-1.1274-1.4492-2.1617-2.994-3.0879-4.627-0.0115-0.0203-0.0237-0.0403-0.0352-0.0605-0.46589-0.82481-0.90236-1.6718-1.3125-2.5391-0.0123-0.026-0.0249-0.0521-0.0371-0.0781-0.81374-1.7304-1.5118-3.5422-2.0859-5.4238-0.0149-0.0487-0.0283-0.0977-0.043-0.14649-0.57417-1.9068-1.0222-3.8821-1.3262-5.9199-1e-4 -6.2e-4 9e-5 -1e-3 0-2e-3 -0.27127-2.1121-0.42383-4.2855-0.42383-6.5391 0-7.424 1.472-14.015 4.416-19.775 3.072-5.76 7.2325-10.305 12.48-13.633s11.263-4.9922 18.047-4.9922z" style="white-space:pre"/>
   <path d="m515.24 755.28q-14.976 0-26.688-6.528-11.52-6.528-18.048-18.24t-6.528-26.88q0-11.712 3.648-21.12 3.648-9.6 10.176-16.704 6.72-7.104 15.936-10.944 9.216-4.032 19.968-4.032 10.176 0 18.432 3.648 8.448 3.648 14.4 10.176 6.144 6.336 9.216 15.168t2.688 19.392l-0.192 6.72h-83.52l-2.112-12.096h74.688l-3.456 3.264v-4.608q-0.384-6.912-4.032-13.248-3.648-6.528-10.368-10.56-6.528-4.032-15.744-4.032-10.752 0-18.624 4.416-7.872 4.224-12.096 12.672t-4.224 20.928q0 11.904 4.608 20.736 4.608 8.64 13.056 13.44 8.64 4.8 20.736 4.8 7.104 0 14.016-2.304 7.104-2.496 15.552-9.6l7.488 10.368q-4.416 4.416-10.56 7.872-6.144 3.264-13.44 5.376-7.296 1.92-14.976 1.92z" style="white-space:pre"/>
   <path d="m692.74 753.36v-100.22h14.4l0.384 26.688-1.536-3.648q2.112-6.72 6.72-12.48 4.8-5.76 11.328-9.216t14.4-3.456q3.264 0 6.144 0.576 2.88 0.384 4.8 1.152l-4.032 16.128q-2.496-1.152-5.184-1.536-2.496-0.576-4.8-0.576-6.528 0-11.712 2.304t-8.832 6.528q-3.648 4.032-5.568 9.408t-1.92 11.52v56.832z" style="white-space:pre"/>
   <path d="m801.93 755.28q-14.976 0-26.688-6.72-11.52-6.72-18.24-18.624-6.528-11.904-6.528-27.072 0-14.976 6.528-26.688 6.72-11.712 18.24-18.432 11.712-6.72 26.688-6.72 14.784 0 26.304 6.72 11.712 6.72 18.24 18.432 6.72 11.712 6.72 26.688 0 15.168-6.72 27.072-6.528 11.904-18.24 18.624-11.52 6.72-26.304 6.72zm0-13.632q10.56 0 18.816-4.992 8.256-5.184 12.864-13.824 4.608-8.832 4.608-19.968t-4.608-19.776-12.864-13.44q-8.256-4.992-18.816-4.992t-19.008 4.992q-8.256 4.8-13.056 13.632-4.608 8.64-4.416 19.584-0.192 11.136 4.416 19.968 4.8 8.64 13.056 13.824 8.448 4.992 19.008 4.992z" style="white-space:pre"/>
   <path d="m915.92 755.28q-14.976 0-26.688-6.72-11.52-6.72-18.24-18.624-6.528-11.904-6.528-27.072 0-14.976 6.528-26.688 6.72-11.712 18.24-18.432 11.712-6.72 26.688-6.72 14.784 0 26.304 6.72 11.712 6.72 18.24 18.432 6.72 11.712 6.72 26.688 0 15.168-6.72 27.072-6.528 11.904-18.24 18.624-11.52 6.72-26.304 6.72zm0-13.632q10.56 0 18.816-4.992 8.256-5.184 12.864-13.824 4.608-8.832 4.608-19.968t-4.608-19.776-12.864-13.44q-8.256-4.992-18.816-4.992t-19.008 4.992q-8.256 4.8-13.056 13.632-4.608 8.64-4.416 19.584-0.192 11.136 4.416 19.968 4.8 8.64 13.056 13.824 8.448 4.992 19.008 4.992z" style="white-space:pre"/>
   <path d="m576.47 611.28v90.605c-9e-3 0.41364-0.0293 0.82456-0.0293 1.2402s0.0202 0.8266 0.0293 1.2402c0.30666 14.01 5.7709 26.806 14.5 36.062 0.53712 0.56956 1.0872 1.1257 1.6484 1.668 0.56161 0.54256 1.1358 1.0699 1.7207 1.584 1.1698 1.0282 2.3848 1.9985 3.6426 2.9062 0.62506 0.45115 1.2608 0.8869 1.9062 1.3066 0.0174 0.0113 0.0353 0.0219 0.0527 0.0332 0.6313 0.40936 1.2719 0.80329 1.9219 1.1816 0.0252 0.0147 0.051 0.0284 0.0762 0.043 0.6462 0.37454 1.3011 0.7352 1.9648 1.0781 0.0199 0.0103 0.0406 0.019 0.0605 0.0293 0.66612 0.3429 1.3405 0.67039 2.0234 0.98047 0.0491 0.0223 0.0993 0.0423 0.14843 0.0645 0.63579 0.28593 1.2781 0.55971 1.9277 0.81641 0.20954 0.0827 0.42383 0.15481 0.63476 0.23437 0.52097 0.19684 1.0411 0.39263 1.5703 0.57032 0.21424 0.0718 0.43286 0.13255 0.64844 0.20117 0.53055 0.16916 1.0613 0.33871 1.5996 0.48828 0.26485 0.0735 0.53412 0.13447 0.80079 0.20312 0.49165 0.12679 0.9828 0.25505 1.4805 0.36524 0.27838 0.0615 0.56161 0.10975 0.8418 0.16601 0.51194 0.10299 1.0232 0.20978 1.541 0.29492 0.22226 0.0365 0.44857 0.0586 0.67187 0.0918 0.55429 0.0825 1.1074 0.16681 1.668 0.22852 0.42586 0.0468 0.85781 0.0728 1.2871 0.10742 0.38736 0.0313 0.77204 0.0744 1.1621 0.0957 0.81034 0.0441 1.6259 0.0664 2.4473 0.0664 0.32576 0 0.64673-0.0199 0.9707-0.0273 5e-3 2.2e-4 0.0104-2.1e-4 0.0156 0 0.64813 0.0267 1.2923 0.0742 1.9453 0.0742 8.96 0 16.96-2.2407 24-6.7207 7.168-4.48 12.8-10.624 16.896-18.432 4.096-7.936 6.1445-16.96 6.1445-27.072s-2.1119-19.071-6.3359-26.879-9.9218-13.954-17.09-18.434c-7.04-4.48-15.04-6.7188-24-6.7188-4.608 0-9.0874 0.70333-13.439 2.1113-4.224 1.408-8.1269 3.3931-11.711 5.9531-3.584 2.432-6.5934 5.3107-9.0254 8.6387-0.7096 0.98555-1.3439 1.9917-1.9199 3.0137v-59.461zm48.574 53.375c6.784 0 12.801 1.6642 18.049 4.9922s9.3431 7.8728 12.287 13.633c3.072 5.76 4.6094 12.351 4.6094 19.775 0 7.296-1.5374 13.887-4.6094 19.775-2.944 5.76-7.0391 10.368-12.287 13.824-5.248 3.328-11.265 4.9922-18.049 4.9922-1.941 0-3.8118-0.15136-5.627-0.42383-0.0971-0.0159-0.19417-0.032-0.29102-0.0488-0.83941-0.14557-1.6686-0.33242-2.4883-0.54493-0.10153-0.0263-0.20349-0.0508-0.30469-0.0781-0.80677-0.21784-1.602-0.46563-2.3867-0.7461-0.0833-0.0298-0.16496-0.0634-0.24805-0.0937-0.7989-0.29307-1.5882-0.61112-2.3613-0.96679-0.77254-0.35542-1.5293-0.74666-2.2734-1.1621-0.10211-0.057-0.20314-0.1157-0.30469-0.17383-0.7373-0.42195-1.4618-0.86696-2.168-1.3457-0.72354-0.49054-1.4272-1.015-2.1152-1.5625-0.0484-0.0385-0.0983-0.0745-0.14649-0.11328-0.68468-0.55084-1.3498-1.1295-1.9961-1.7344-0.0353-0.033-0.0703-0.0664-0.10547-0.0996-1.2982-1.225-2.5121-2.5584-3.6367-3.9863-0.0462-0.0587-0.0928-0.11677-0.13867-0.17578-1.1274-1.4492-2.1617-2.994-3.0879-4.627-0.0115-0.0203-0.0237-0.0403-0.0352-0.0605-0.46589-0.82481-0.90236-1.6718-1.3125-2.5391-0.0123-0.026-0.0249-0.0521-0.0371-0.0781-0.81374-1.7304-1.5118-3.5422-2.0859-5.4238-0.0149-0.0487-0.0283-0.0977-0.043-0.14649-0.57417-1.9068-1.0222-3.8821-1.3262-5.9199-1e-4 -6.2e-4 9e-5 -1e-3 0-2e-3 -0.27127-2.1121-0.42383-4.2855-0.42383-6.5391 0-7.424 1.472-14.015 4.416-19.775 3.072-5.76 7.2325-10.305 12.48-13.633s11.263-4.9922 18.047-4.9922z" style="white-space:pre"/>
  </g>
  <g transform="rotate(-35 623.21 529.69)">
   <path d="m638.29 460.01c-0.57563-0.43906-1.1707-0.86421-1.7838-1.274-5.8848-3.9338-13.488-6.4621-22.753-6.4621-24.602 0-37.595 17.721-37.595 32.66l-8.6e-4 91.473a7.3054 7.7123 0 0 0 1.7522 5.0089l30.29 37.422a7.3054 7.7123 0 0 0 11.107-6.4e-4l30.29-37.42a7.3054 7.7123 0 0 0 1.7526-5.0107l8.5e-4 -91.473c1e-5 -8.6044-4.4249-18.337-13.06-24.922z" color="#000000" fill="url(#linearGradient105058)" style="-inkscape-stroke:none"/>
  </g>
 </g>
</svg>
